<svg width="20" height="19" xmlns="http://www.w3.org/2000/svg" fill="none">
 <g>
  <title>Layer 1</title>
  <path fill-rule="evenodd" clip-rule="evenodd" d="m14.00001,0.44326c-1.3029,-0.00001 -2.0449,0.15521 -3.0076,0.62645c-0.3565,0.17448 -0.6909,0.38459 -1.00145,0.62972c-0.2986,-0.23138 -0.61964,-0.43185 -0.96135,-0.60086c-0.98144,-0.48542 -1.86437,-0.65532 -3.12053,-0.65532c-3.3643,0 -5.80909,2.78754 -5.80909,6.40789c0,2.73409 1.52444,5.37521 4.36395,7.92901c1.49045,1.3405 3.39344,2.6671 4.75629,3.3728l0.77976,0.4038l0.77972,-0.4038c1.3629,-0.7057 3.2659,-2.0323 4.7563,-3.3728c2.8395,-2.5538 4.364,-5.19492 4.364,-7.92901c0,-3.58203 -2.5658,-6.39407 -5.9,-6.40788zm4.1,6.40792c0,2.14202 -1.2724,4.34647 -3.7676,6.59067c-1.3604,1.2235 -3.1093,2.4463 -4.3324,3.0878c-1.22305,-0.6415 -2.97194,-1.8643 -4.33233,-3.0878c-2.49521,-2.2442 -3.76765,-4.44865 -3.76765,-6.59067c0,-2.67495 1.69528,-4.60789 4.00909,-4.60789c0.99876,0 1.61422,0.11843 2.32253,0.46876c0.41838,0.20693 0.78817,0.48017 1.10826,0.82163l0.6622,0.70644l0.6562,-0.71204c0.3273,-0.35514 0.7025,-0.6346 1.1254,-0.84161c0.6876,-0.33654 1.2646,-0.44318 2.3105,-0.44318c2.2852,0.00948 4.0058,1.97006 4.0058,4.60789z" fill="black" id="svg_1"/>
  <path fill="none" id="svg_4" d="m3.375,2.12501c0.375,0 0.59624,-0.06858 1.125,-0.25c0.60288,-0.20685 0.75,-0.125 1.125,-0.125c0.125,0 0.875,0 2.125,0l0.75,0l0.5,0l0.125,0"/>
 </g>

</svg>